<svg width="16" height="13" viewBox="0 0 16 13" fill="none" xmlns="http://www.w3.org/2000/svg">
<path d="M15.118 2.12715C14.5515 2.37857 13.9536 2.5357 13.3242 2.62998C13.9536 2.25286 14.4571 1.65575 14.6774 0.932939C14.0794 1.27863 13.4186 1.53005 12.6947 1.68718C12.1283 1.09007 11.3101 0.712952 10.4289 0.712952C8.72948 0.712952 7.34479 2.09573 7.34479 3.79277C7.34479 4.04418 7.37626 4.26417 7.4392 4.48415C4.89011 4.35845 2.59277 3.13281 1.05073 1.24721C0.798965 1.71861 0.641613 2.22143 0.641613 2.78711C0.641613 3.85562 1.17661 4.79842 2.02631 5.3641C1.52278 5.33267 1.05073 5.20697 0.610143 4.98698V5.01841C0.610143 6.52689 1.68013 7.78396 3.0963 8.0668C2.84454 8.12965 2.5613 8.16108 2.27807 8.16108C2.08925 8.16108 1.86896 8.12965 1.68013 8.09822C2.08925 9.32386 3.22218 10.2352 4.5754 10.2352C3.50541 11.0523 2.18366 11.5552 0.736024 11.5552C0.484262 11.5552 0.232499 11.5552 0.012207 11.5237C1.3969 12.4037 3.00189 12.9065 4.76423 12.9065C10.4604 12.9065 13.5759 8.1925 13.5759 4.10703C13.5759 3.98133 13.5759 3.82419 13.5759 3.69849C14.1738 3.28994 14.7088 2.75569 15.118 2.12715Z" fill="white"/>
</svg>
