<svg width="20" height="19" viewBox="0 0 20 19" fill="none" xmlns="http://www.w3.org/2000/svg">
<path d="M9.87759 1.70384C12.3227 1.70384 12.6123 1.71299 13.5782 1.75697C14.159 1.76407 14.7343 1.87056 15.279 2.07182C15.674 2.22396 16.0328 2.45701 16.3321 2.75597C16.6315 3.05493 16.8649 3.41318 17.0172 3.80766C17.2188 4.35163 17.3254 4.92609 17.3325 5.50605C17.3761 6.47065 17.3857 6.75981 17.3857 9.20157C17.3857 11.6433 17.3766 11.9325 17.3325 12.8971C17.3254 13.477 17.2188 14.0515 17.0172 14.5955C16.8649 14.99 16.6315 15.3482 16.3321 15.6472C16.0328 15.9461 15.674 16.1792 15.279 16.3313C14.7343 16.5326 14.159 16.6391 13.5782 16.6462C12.6127 16.6897 12.3232 16.6993 9.87759 16.6993C7.432 16.6993 7.14244 16.6902 6.17694 16.6462C5.59617 16.6391 5.02092 16.5326 4.4762 16.3313C4.08117 16.1792 3.72242 15.9461 3.42304 15.6472C3.12366 15.3482 2.89029 14.99 2.73795 14.5955C2.5364 14.0515 2.42976 13.477 2.42265 12.8971C2.37904 11.9325 2.36945 11.6433 2.36945 9.20157C2.36945 6.75981 2.37861 6.47065 2.42265 5.50605C2.42976 4.92609 2.5364 4.35163 2.73795 3.80766C2.89029 3.41318 3.12366 3.05493 3.42304 2.75597C3.72242 2.45701 4.08117 2.22396 4.4762 2.07182C5.02092 1.87056 5.59617 1.76407 6.17694 1.75697C7.14288 1.71342 7.43244 1.70384 9.87759 1.70384ZM9.87759 0.0559692C7.39188 0.0559692 7.07877 0.0664208 6.10193 0.11084C5.34185 0.125938 4.58984 0.269653 3.87788 0.535873C3.26714 0.765663 2.71396 1.12576 2.25694 1.59105C1.79059 2.0476 1.42968 2.60033 1.19942 3.21062C0.932835 3.92159 0.78892 4.67256 0.773802 5.43158C0.730193 6.4062 0.719727 6.71887 0.719727 9.20113C0.719727 11.6834 0.730193 11.9961 0.774674 12.9716C0.789792 13.7306 0.933707 14.4816 1.2003 15.1925C1.43029 15.8027 1.7909 16.3555 2.25694 16.8121C2.71421 17.2775 3.2677 17.6376 3.87875 17.8673C4.59071 18.1335 5.34272 18.2772 6.10281 18.2923C7.07964 18.3358 7.39145 18.3472 9.87846 18.3472C12.3655 18.3472 12.6773 18.3367 13.6541 18.2923C14.4142 18.2772 15.1662 18.1335 15.8782 17.8673C16.4863 17.6319 17.0386 17.2723 17.4997 16.8116C17.9607 16.3509 18.3204 15.7991 18.5558 15.1917C18.8223 14.4807 18.9663 13.7297 18.9814 12.9707C19.025 11.9961 19.0355 11.6834 19.0355 9.20113C19.0355 6.71887 19.025 6.4062 18.9805 5.43071C18.9654 4.67168 18.8215 3.92071 18.5549 3.20974C18.3249 2.59954 17.9643 2.04682 17.4982 1.59018C17.041 1.12479 16.4875 0.764679 15.8764 0.535002C15.1645 0.268782 14.4125 0.125067 13.6524 0.109969C12.6764 0.0664209 12.3633 0.0559692 9.87759 0.0559692Z" fill="white"/>
<path d="M9.87954 4.5069C8.94942 4.5069 8.04018 4.78233 7.26682 5.29836C6.49345 5.81439 5.89068 6.54785 5.53474 7.40598C5.1788 8.26411 5.08566 9.20837 5.26712 10.1194C5.44858 11.0303 5.89648 11.8671 6.55417 12.5239C7.21187 13.1807 8.04982 13.628 8.96207 13.8092C9.87432 13.9904 10.8199 13.8974 11.6792 13.5419C12.5385 13.1865 13.273 12.5846 13.7898 11.8123C14.3065 11.04 14.5823 10.132 14.5823 9.20316C14.5823 7.95763 14.0869 6.76312 13.2049 5.8824C12.323 5.00168 11.1268 4.5069 9.87954 4.5069ZM9.87954 12.2515C9.27579 12.2515 8.6856 12.0728 8.1836 11.7378C7.68159 11.4028 7.29033 10.9267 7.05929 10.3697C6.82824 9.8127 6.76779 9.19978 6.88557 8.60845C7.00336 8.01712 7.2941 7.47395 7.72101 7.04762C8.14793 6.6213 8.69185 6.33097 9.284 6.21334C9.87615 6.09572 10.4899 6.15609 11.0477 6.38681C11.6055 6.61754 12.0823 7.00826 12.4177 7.50956C12.7531 8.01087 12.9322 8.60024 12.9322 9.20316C12.9322 10.0116 12.6105 10.787 12.0381 11.3587C11.4656 11.9304 10.6891 12.2515 9.87954 12.2515Z" fill="white"/>
<path d="M14.7674 5.41743C15.3743 5.41743 15.8663 4.9261 15.8663 4.32001C15.8663 3.71393 15.3743 3.2226 14.7674 3.2226C14.1605 3.2226 13.6685 3.71393 13.6685 4.32001C13.6685 4.9261 14.1605 5.41743 14.7674 5.41743Z" fill="white"/>
</svg>
