<svg width="18" height="18" viewBox="0 0 18 18" fill="none" xmlns="http://www.w3.org/2000/svg">
<path fill-rule="evenodd" clip-rule="evenodd" d="M8.77466 0.0559692C3.92015 0.0559692 0.0146484 3.95606 0.0146484 8.80383C0.0146484 12.6675 2.53315 15.9479 6.00065 17.1143C6.43865 17.1872 6.58465 16.9321 6.58465 16.6769C6.58465 16.4582 6.58465 15.9115 6.58465 15.1825C4.13915 15.7292 3.62815 14.0161 3.62815 14.0161C3.22665 12.9955 2.64265 12.7404 2.64265 12.7404C1.83965 12.1936 2.71565 12.1936 2.71565 12.1936C3.59165 12.2665 4.06615 13.1049 4.06615 13.1049C4.83265 14.4535 6.11015 14.0526 6.62115 13.8339C6.69415 13.2507 6.91316 12.8862 7.16866 12.6675C5.23415 12.4488 3.19015 11.6833 3.19015 8.32999C3.19015 7.3823 3.51865 6.58042 4.10265 5.99723C4.02965 5.77853 3.70115 4.90374 4.17565 3.66446C4.17565 3.66446 4.90565 3.44577 6.58465 4.5757C7.27816 4.39345 8.04466 4.2841 8.77466 4.2841C9.50466 4.2841 10.2712 4.39345 10.9647 4.5757C12.6437 3.44577 13.3737 3.66446 13.3737 3.66446C13.8482 4.86729 13.5562 5.74208 13.4467 5.99723C13.9942 6.61687 14.3592 7.3823 14.3592 8.32999C14.3592 11.6833 12.3152 12.4123 10.3442 12.631C10.6727 12.8862 10.9282 13.4329 10.9282 14.2348C10.9282 15.4012 10.9282 16.3489 10.9282 16.6405C10.9282 16.8592 11.0742 17.1508 11.5487 17.0779C15.0162 15.9479 17.5347 12.6675 17.5347 8.80383C17.5347 3.95606 13.6292 0.0559692 8.77466 0.0559692Z" fill="white"/>
</svg>
