<svg width="35" height="35" viewBox="0 0 35 35" fill="none" xmlns="http://www.w3.org/2000/svg">
<g id="ri:alert-fill">
<path id="Vector" d="M18.7617 4.3751L32.6538 28.4376C32.7818 28.6593 32.8492 28.9108 32.8492 29.1668C32.8492 29.4227 32.7818 29.6742 32.6538 29.8959C32.5258 30.1176 32.3417 30.3017 32.1201 30.4297C31.8984 30.5577 31.6469 30.6251 31.3909 30.6251H3.60673C3.35075 30.6251 3.09927 30.5577 2.87758 30.4297C2.65589 30.3017 2.4718 30.1176 2.34381 29.8959C2.21582 29.6742 2.14844 29.4227 2.14844 29.1668C2.14844 28.9108 2.21582 28.6593 2.34382 28.4376L16.2359 4.3751C16.3639 4.15342 16.548 3.96934 16.7697 3.84136C16.9914 3.71337 17.2428 3.646 17.4988 3.646C17.7548 3.646 18.0063 3.71337 18.228 3.84136C18.4496 3.96934 18.6337 4.15342 18.7617 4.3751ZM16.0405 23.3334V26.2501H18.9571V23.3334H16.0405ZM16.0405 13.1251V20.4168H18.9571V13.1251H16.0405Z" fill="white"/>
</g>
</svg>
