<svg width="30" height="30" viewBox="0 0 30 30" fill="none" xmlns="http://www.w3.org/2000/svg">
<g id="mdi:company">
<path id="Vector" d="M22.5 18.75H20V21.25H22.5M22.5 13.75H20V16.25H22.5M25 23.75H15V21.25H17.5V18.75H15V16.25H17.5V13.75H15V11.25H25M12.5 8.75H10V6.25H12.5M12.5 13.75H10V11.25H12.5M12.5 18.75H10V16.25H12.5M12.5 23.75H10V21.25H12.5M7.5 8.75H5V6.25H7.5M7.5 13.75H5V11.25H7.5M7.5 18.75H5V16.25H7.5M7.5 23.75H5V21.25H7.5M15 8.75V3.75H2.5V26.25H27.5V8.75H15Z" fill="#001589"/>
</g>
</svg>
