<svg width="228" height="204" viewBox="0 0 228 204" fill="none" xmlns="http://www.w3.org/2000/svg">
<g id="noto:party-popper" opacity="0.5">
<path id="Vector" d="M214.729 219.575C210.686 223.957 194.031 216.315 180.886 210.188C171.035 205.61 131.616 189.436 112.022 181.046C106.732 178.784 99.0372 175.827 93.4975 168.542C88.5812 162.058 75.5425 134.52 101.798 106.626C128.446 78.3038 155.895 86.1234 166.155 93.3909C172.193 97.6659 177.109 107.303 179.318 112.201C188.652 132.899 201.958 170.822 207.373 185.731C211.345 196.721 218.737 215.228 214.729 219.575Z" fill="#FFC107"/>
<path id="Vector_2" d="M181.955 118.435C181.706 121.535 181.082 126.576 178.945 136.283C177.484 142.945 175.097 149.928 173.156 154.541C167.331 168.417 159.155 174.01 150.872 178.499C136.8 186.123 127.235 187.548 127.235 187.548L138.706 192.232C138.706 192.232 145.653 190.79 155.13 186.123C164.16 181.67 173.565 174.135 180.441 159.386C183.416 152.992 185.144 146.793 186.141 141.877C187.37 135.785 187.566 132.329 187.566 132.329L181.955 118.435ZM196.045 154.559C196.045 154.559 194.62 166.119 185.072 180.708C173.886 197.772 158.265 200.569 158.265 200.569L168.649 204.844C168.649 204.844 180.245 201.299 191.271 186.247C198.147 176.86 200.07 165.638 200.07 165.638L196.045 154.559ZM205.931 181.955C205.931 181.955 203.33 191.93 197.63 199.375C190.844 208.264 182.205 210.847 182.205 210.847L190.167 214.373C190.167 214.373 196.205 213.109 202.814 204.737C207.837 198.378 209.262 191.075 209.262 191.075L205.931 181.955Z" fill="#FF8F00"/>
<path id="Vector_3" opacity="0.44" d="M210.258 207.284C210.615 206.483 210.615 205.574 210.241 204.79L164.872 110.705L157.409 138.759L205.146 207.712C206.429 209.635 209.314 209.386 210.258 207.284Z" fill="#FFFDE7"/>
<path id="Vector_4" d="M153.81 148.182C132.614 172.977 108.478 169.878 100.444 163.608C92.393 157.32 86.0339 135.713 107.142 111.328C129.265 85.7851 154.309 93.0704 160.098 98.5922C165.887 104.114 173.262 125.436 153.81 148.182Z" fill="url(#paint0_linear_401_4121)"/>
<path id="Vector_5" d="M81.0108 158.389C88.7414 151.905 92.8561 153.063 98.378 155.361C105.503 158.318 116.707 160.508 131.919 155.361L127.341 144.335C118.31 147.381 111.773 145.902 106.126 142.571C98.8589 138.296 88.9196 132.436 73.4583 145.421C67.0102 150.836 60.4018 154.434 55.5568 152.796C52.0299 151.62 50.1596 146.365 49.2155 142.179C49.1264 141.805 48.9839 140.737 48.8771 139.793C48.0221 133.255 46.5971 119.148 36.0877 111.934C24.848 104.221 13.0383 104.221 13.0383 104.221L10.9008 125.453C16.3336 124.652 20.1099 125.756 23.2983 127.52C35.3039 134.199 24.848 159.849 43.5333 168.471C61.5061 176.825 76.2015 162.414 81.0108 158.389Z" fill="#03A9F4"/>
<path id="Vector_6" d="M147.131 131.314L154.862 124.385C140.665 108.532 144.406 96.8822 147.131 88.4034C147.684 86.6934 148.2 85.0725 148.539 83.5228C149.75 78.0366 149.999 73.2628 149.625 69.0947C155.076 62.3081 157.48 55.2009 157.641 54.72C160.954 44.6916 158.46 34.9125 152.742 25.7391C141.182 7.125 120.252 7.125 120.252 7.125L113.27 25.8103C118.578 25.5966 135.981 25.8638 141.324 34.2891C148.075 44.9053 143.64 51.4603 143.319 52.2084C142.019 50.5163 140.701 49.1625 139.525 48.1116C130.993 40.5413 123.583 39.4547 118.863 39.8822C113.555 40.3631 108.745 43.035 105.308 47.4169C101.549 52.2263 99.9995 58.4784 101.193 64.1606C102.351 69.7003 106.038 74.385 111.578 77.3597C121.25 82.5609 129.301 81.8484 134.698 80.0494C134.663 80.1741 134.645 80.3166 134.609 80.4413C134.413 81.3319 134.021 82.5788 133.558 84.0216C130.405 93.7828 124.545 109.28 147.131 131.314ZM134.039 64.4634C133.006 65.2116 131.919 65.835 130.797 66.2803C127.057 67.7766 122.978 67.2778 118.346 64.7841C115.621 63.3234 115.3 61.7559 115.194 61.2394C114.873 59.6897 115.407 57.7125 116.565 56.2341C117.58 54.9338 118.756 54.2569 120.163 54.1144C122.835 53.8828 126.451 55.575 130.067 58.7991C131.795 60.3488 133.113 62.2547 134.039 64.4634Z" fill="#F44336"/>
<path id="Vector_7" d="M116.191 134.217L127.253 133.914C127.253 133.914 121.998 104.239 104.987 99.2512C101.799 98.325 98.3076 97.3809 94.7986 96.8644C92.7145 96.5437 89.4192 96.0628 87.7982 95.4572C87.4242 92.6606 88.5998 89.0981 89.9179 85.0547C90.9511 81.9197 92.0198 78.6956 92.5898 75.1687C93.6942 68.2931 91.8595 62.2191 87.4242 58.0331C82.0092 52.9566 73.2632 51.3356 63.3951 53.58C57.7664 54.8625 53.6161 57.6234 49.9645 60.0459C44.7454 63.5194 41.6995 65.2828 35.3226 60.99C27.6098 55.7887 37.6917 35.429 43.0532 23.6728L23.0498 15.3365C20.3601 21.2147 7.37481 51.4603 15.9426 68.7206C18.8282 74.5275 23.7979 78.375 30.3173 79.8178C44.4961 82.9884 52.7967 77.4665 58.8529 73.4409C61.7207 71.535 64.2323 70.0387 66.9576 69.255C85.8923 63.8578 59.4586 91.7165 71.8383 104.239C79.2661 111.738 97.417 113.715 98.5926 114C110.278 116.814 116.191 134.217 116.191 134.217Z" fill="#F48FB1"/>
<path id="Vector_8" d="M149.643 69.0947C149.981 73.0135 150.142 75.3469 149.126 80.4413C144.228 84.0394 133.558 84.0394 133.558 84.0394C134.021 82.5966 134.431 81.3497 134.609 80.4591C134.645 80.3344 134.663 80.1919 134.698 80.0672C145.546 74.6522 149.643 69.0947 149.643 69.0947Z" fill="#C92B27"/>
<path id="Vector_9" d="M171.837 86.64L190.255 77.6091L181.081 64.3566L166.636 73.9219L171.837 86.64Z" fill="#FFC107"/>
<path id="Vector_10" d="M198.983 61.6313C208.388 60.3666 217.972 52.3866 219.022 51.4782L209.778 40.6304C206.981 42.9994 201.05 46.9716 197.077 47.506L198.983 61.6313Z" fill="#FB8C00"/>
<path id="Vector_11" d="M182.382 37.8871L195.92 33.4518C194.37 28.7137 193.961 23.6015 194.762 18.6675L180.69 16.4053C179.532 23.5659 180.12 30.9937 182.382 37.8871Z" fill="#03A9F4"/>
<path id="Vector_12" d="M97.8389 27.2976L83.9184 24.2517L79.8981 42.6271L93.8186 45.673L97.8389 27.2976Z" fill="#FB8C00"/>
<path id="Vector_13" d="M63.3057 31.6528L73.1025 21.3037C67.9725 16.4409 66.7969 10.0819 66.7969 10.0106L52.725 12.3084C52.9032 13.4306 54.7022 23.5125 63.3057 31.6528Z" fill="#FFC107"/>
<path id="Vector_14" d="M57.8652 86.5331L45.4196 82.6428L41.1696 96.2444L53.6152 100.135L57.8652 86.5331Z" fill="#FB8C00"/>
<path id="Vector_15" d="M54.2391 201.335L68.4 199.66C67.7944 194.619 71.5528 188.438 72.5859 187.067L61.1859 178.517C60.3309 179.639 52.9031 189.917 54.2391 201.335Z" fill="#F44336"/>
<path id="Vector_16" d="M13.5907 183.273C18.9166 182.471 24.3672 182.151 29.7466 182.347L30.2275 168.097C23.9754 167.883 17.6519 168.239 11.471 169.183L13.5907 183.273Z" fill="#FB8C00"/>
<path id="Vector_17" d="M32.75 202.888L22.7394 192.747L8.9614 206.353L18.972 216.491L32.75 202.888Z" fill="#F48FB1"/>
<path id="Vector_18" d="M62.1603 112.814L51.8647 124.586L63.637 134.882L73.9326 123.109L62.1603 112.814Z" fill="#F44336"/>
</g>
<defs>
<linearGradient id="paint0_linear_401_4121" x1="95.503" y1="110.151" x2="148.525" y2="141.964" gradientUnits="userSpaceOnUse">
<stop offset="0.024" stop-color="#8F4700"/>
<stop offset="1" stop-color="#703E2D"/>
</linearGradient>
</defs>
</svg>
