<svg width="197" height="185" viewBox="0 0 197 185" fill="none" xmlns="http://www.w3.org/2000/svg">
<g id="noto:party-popper" opacity="0.5">
<path id="Vector" d="M-17.7294 219.575C-13.6859 223.957 2.96876 216.315 16.1144 210.188C25.9647 205.61 65.3838 189.436 84.9775 181.046C90.2678 178.784 97.9628 175.827 103.503 168.542C108.419 162.058 121.458 134.52 95.2019 106.626C68.5544 78.3038 41.1053 86.1234 30.8453 93.3909C24.8069 97.6659 19.8906 107.303 17.6819 112.201C8.34813 132.899 -4.95781 170.822 -10.3728 185.731C-14.345 196.721 -21.7372 215.228 -17.7294 219.575Z" fill="#FFC107"/>
<path id="Vector_2" d="M15.0448 118.435C15.2942 121.535 15.9177 126.576 18.0552 136.283C19.5158 142.945 21.9027 149.928 23.8442 154.541C29.6689 168.417 37.8448 174.01 46.1277 178.499C60.1995 186.123 69.7648 187.548 69.7648 187.548L58.2936 192.232C58.2936 192.232 51.3467 190.79 41.8705 186.123C32.8395 181.67 23.4345 174.135 16.5589 159.386C13.5842 152.992 11.8564 146.793 10.8589 141.877C9.62984 135.785 9.43391 132.329 9.43391 132.329L15.0448 118.435ZM0.955157 154.559C0.955157 154.559 2.38016 166.119 11.9277 180.708C23.1139 197.772 38.7355 200.569 38.7355 200.569L28.3508 204.844C28.3508 204.844 16.7548 201.299 5.72891 186.247C-1.14672 176.86 -3.07047 165.638 -3.07047 165.638L0.955157 154.559ZM-8.93078 181.955C-8.93078 181.955 -6.33016 191.93 -0.630157 199.375C6.1564 208.264 14.7955 210.847 14.7955 210.847L6.83328 214.373C6.83328 214.373 0.794845 213.109 -5.81359 204.737C-10.8367 198.378 -12.2617 191.075 -12.2617 191.075L-8.93078 181.955Z" fill="#FF8F00"/>
<path id="Vector_3" opacity="0.44" d="M-13.2584 207.284C-13.6147 206.483 -13.6147 205.574 -13.2406 204.79L32.1278 110.705L39.5913 138.759L-8.14625 207.712C-9.42875 209.635 -12.3144 209.386 -13.2584 207.284Z" fill="#FFFDE7"/>
<path id="Vector_4" d="M43.1895 148.182C64.3864 172.977 88.5224 169.878 96.5558 163.608C104.607 157.32 110.966 135.713 89.8583 111.328C67.7352 85.7851 42.6908 93.0704 36.9017 98.5922C31.1127 104.114 23.7383 125.436 43.1895 148.182Z" fill="url(#paint0_linear_401_4102)"/>
<path id="Vector_5" d="M115.989 158.389C108.259 151.905 104.144 153.063 98.622 155.361C91.497 158.318 80.2929 160.508 65.0811 155.361L69.6589 144.335C78.6898 147.381 85.227 145.902 90.8736 142.571C98.1411 138.296 108.08 132.436 123.542 145.421C129.99 150.836 136.598 154.434 141.443 152.796C144.97 151.62 146.84 146.365 147.785 142.179C147.874 141.805 148.016 140.737 148.123 139.793C148.978 133.255 150.403 119.148 160.912 111.934C172.152 104.221 183.962 104.221 183.962 104.221L186.099 125.453C180.666 124.652 176.89 125.756 173.702 127.52C161.696 134.199 172.152 159.849 153.467 168.471C135.494 176.825 120.799 162.414 115.989 158.389Z" fill="#03A9F4"/>
<path id="Vector_6" d="M49.8686 131.314L42.138 124.385C56.3346 108.532 52.5939 96.8822 49.8686 88.4034C49.3164 86.6934 48.7999 85.0725 48.4614 83.5228C47.2502 78.0366 47.0008 73.2628 47.3749 69.0947C41.9243 62.3081 39.5196 55.2009 39.3593 54.72C36.0461 44.6916 38.5399 34.9125 44.2577 25.7391C55.818 7.125 76.7477 7.125 76.7477 7.125L83.7302 25.8103C78.4221 25.5966 61.0193 25.8638 55.6755 34.2891C48.9246 44.9053 53.3599 51.4603 53.6805 52.2084C54.9808 50.5163 56.2989 49.1625 57.4746 48.1116C66.0068 40.5413 73.4168 39.4547 78.1371 39.8822C83.4452 40.3631 88.2546 43.035 91.6924 47.4169C95.4508 52.2263 97.0005 58.4784 95.8071 64.1606C94.6493 69.7003 90.9621 74.385 85.4224 77.3597C75.7502 82.5609 67.6989 81.8484 62.3018 80.0494C62.3374 80.1741 62.3552 80.3166 62.3908 80.4413C62.5868 81.3319 62.9786 82.5788 63.4418 84.0216C66.5946 93.7828 72.4549 109.28 49.8686 131.314ZM62.9608 64.4634C63.9939 65.2116 65.0805 65.835 66.2027 66.2803C69.9433 67.7766 74.0224 67.2778 78.6536 64.7841C81.3789 63.3234 81.6996 61.7559 81.8064 61.2394C82.1271 59.6897 81.5927 57.7125 80.4349 56.2341C79.4196 54.9338 78.2439 54.2569 76.8368 54.1144C74.1649 53.8828 70.5489 55.575 66.933 58.7991C65.2052 60.3488 63.8871 62.2547 62.9608 64.4634Z" fill="#F44336"/>
<path id="Vector_7" d="M80.8086 134.217L69.7471 133.914C69.7471 133.914 75.0018 104.239 92.0127 99.2512C95.2011 98.325 98.6924 97.3809 102.201 96.8644C104.285 96.5437 107.581 96.0628 109.202 95.4572C109.576 92.6606 108.4 89.0981 107.082 85.0547C106.049 81.9197 104.98 78.6956 104.41 75.1687C103.306 68.2931 105.14 62.2191 109.576 58.0331C114.991 52.9566 123.737 51.3356 133.605 53.58C139.234 54.8625 143.384 57.6234 147.035 60.0459C152.255 63.5194 155.3 65.2828 161.677 60.99C169.39 55.7887 159.308 35.429 153.947 23.6728L173.95 15.3365C176.64 21.2147 189.625 51.4603 181.057 68.7206C178.172 74.5275 173.202 78.375 166.683 79.8178C152.504 82.9884 144.203 77.4665 138.147 73.4409C135.279 71.535 132.768 70.0387 130.042 69.255C111.108 63.8578 137.541 91.7165 125.162 104.239C117.734 111.738 99.583 113.715 98.4074 114C86.7224 116.814 80.8086 134.217 80.8086 134.217Z" fill="#F48FB1"/>
<path id="Vector_8" d="M47.3571 69.0947C47.0187 73.0135 46.8584 75.3469 47.8737 80.4413C52.7721 84.0394 63.4418 84.0394 63.4418 84.0394C62.9787 82.5966 62.569 81.3497 62.3909 80.4591C62.3552 80.3344 62.3374 80.1919 62.3018 80.0672C51.454 74.6522 47.3571 69.0947 47.3571 69.0947Z" fill="#C92B27"/>
<path id="Vector_9" d="M25.1632 86.64L6.74512 77.6091L15.9186 64.3566L30.3645 73.9219L25.1632 86.64Z" fill="#FFC107"/>
<path id="Vector_10" d="M14.6176 37.8871L1.08008 33.4518C2.62977 28.7137 3.03945 23.6015 2.23789 18.6675L16.3098 16.4053C17.4676 23.5659 16.8798 30.9937 14.6176 37.8871Z" fill="#03A9F4"/>
<path id="Vector_11" d="M99.1611 27.2976L113.082 24.2517L117.102 42.6271L103.181 45.673L99.1611 27.2976Z" fill="#FB8C00"/>
<path id="Vector_12" d="M133.694 31.6528L123.897 21.3037C129.027 16.4409 130.203 10.0819 130.203 10.0106L144.275 12.3084C144.097 13.4306 142.298 23.5125 133.694 31.6528Z" fill="#FFC107"/>
<path id="Vector_13" d="M139.135 86.5331L151.58 82.6428L155.83 96.2444L143.385 100.135L139.135 86.5331Z" fill="#FB8C00"/>
<path id="Vector_14" d="M142.761 201.335L128.6 199.66C129.206 194.619 125.447 188.438 124.414 187.067L135.814 178.517C136.669 179.639 144.097 189.917 142.761 201.335Z" fill="#F44336"/>
<path id="Vector_15" d="M183.409 183.273C178.083 182.471 172.633 182.151 167.253 182.347L166.772 168.097C173.025 167.883 179.348 168.239 185.529 169.183L183.409 183.273Z" fill="#FB8C00"/>
<path id="Vector_16" d="M134.84 112.814L145.135 124.586L133.363 134.882L123.067 123.109L134.84 112.814Z" fill="#F44336"/>
</g>
<defs>
<linearGradient id="paint0_linear_401_4102" x1="101.497" y1="110.151" x2="48.4745" y2="141.964" gradientUnits="userSpaceOnUse">
<stop offset="0.024" stop-color="#8F4700"/>
<stop offset="1" stop-color="#703E2D"/>
</linearGradient>
</defs>
</svg>
