<svg width="30" height="30" viewBox="0 0 30 30" fill="none" xmlns="http://www.w3.org/2000/svg">
<g id="octicon:rocket-24" clip-path="url(#clip0_401_4098)">
<path id="Vector" d="M25.4026 0.9375H26.8726C27.4525 0.9375 28.0087 1.1678 28.4189 1.57776C28.8291 1.98773 29.0597 2.54381 29.0601 3.12375V4.595C29.061 8.02127 27.7531 11.3185 25.4038 13.8125L23.8688 15.4425C23.2343 16.1158 22.5686 16.759 21.8738 17.37V23.6675C21.8738 24.4363 21.4701 25.1475 20.8113 25.5425L15.1688 28.9287C15.0407 29.0057 14.8961 29.0509 14.747 29.0606C14.5979 29.0703 14.4486 29.0442 14.3116 28.9845C14.1746 28.9249 14.0539 28.8333 13.9595 28.7175C13.8651 28.6017 13.7997 28.465 13.7688 28.3188L12.5651 22.6038C12.5029 22.5543 12.4444 22.5004 12.3901 22.4425L10.0501 19.95L7.55757 17.6087C7.49964 17.5544 7.44574 17.4959 7.39632 17.4338L1.68257 16.23C1.53615 16.1995 1.39917 16.1343 1.28306 16.04C1.16694 15.9458 1.07508 15.8251 1.01513 15.688C0.955175 15.551 0.928881 15.4016 0.93844 15.2523C0.947999 15.1031 0.993134 14.9583 1.07007 14.83L4.45757 9.1875C4.85257 8.52875 5.56382 8.125 6.33257 8.125H12.6288C13.2398 7.43108 13.883 6.76618 14.5563 6.1325L16.1863 4.595C18.6797 2.24615 21.9758 0.937904 25.4013 0.9375H25.4026ZM17.4726 5.96L15.8426 7.49625C14.3085 8.94166 12.9435 10.5566 11.7738 12.31L9.03257 16.4225L11.3563 18.6025C11.3711 18.616 11.3853 18.6302 11.3988 18.645L13.5776 20.9675L17.6876 18.2275C19.4425 17.0574 21.0587 15.6915 22.5051 14.1562L24.0401 12.5275C26.0618 10.3812 27.1873 7.54359 27.1863 4.595V3.125C27.1863 3.04212 27.1534 2.96263 27.0948 2.90403C27.0362 2.84542 26.9567 2.8125 26.8738 2.8125H25.4026C22.4547 2.81266 19.6182 3.93851 17.4726 5.96ZM8.12507 26.25C6.61382 27.7612 3.24882 28.0562 2.19632 28.1125C2.15504 28.1151 2.11368 28.109 2.07492 28.0945C2.03616 28.0801 2.00086 28.0577 1.97132 28.0288C1.94237 27.9992 1.91995 27.9639 1.90552 27.9252C1.8911 27.8864 1.88498 27.845 1.88757 27.8037C1.94382 26.7512 2.23882 23.3862 3.75007 21.875C4.87507 20.75 7.00007 20.75 8.12507 21.875C9.25007 23 9.25007 25.125 8.12507 26.25ZM7.38507 15.515L10.2126 11.2712C10.5001 10.8387 10.8001 10.415 11.1088 10H6.33257C6.27873 10 6.22582 10.014 6.17895 10.0405C6.13208 10.067 6.09286 10.1051 6.06507 10.1513L3.35632 14.6663L7.38507 15.515ZM20.0001 18.89C19.5838 19.2 19.1601 19.4988 18.7276 19.7875L14.4863 22.615L15.3338 26.6438L19.8488 23.935C19.8949 23.9072 19.9331 23.868 19.9596 23.8211C19.9861 23.7743 20 23.7213 20.0001 23.6675V18.89ZM21.8751 10C21.875 10.2463 21.8264 10.4902 21.7321 10.7177C21.6377 10.9453 21.4995 11.152 21.3253 11.3261C21.151 11.5002 20.9442 11.6383 20.7166 11.7325C20.489 11.8266 20.2451 11.8751 19.9988 11.875C19.7525 11.8749 19.5086 11.8263 19.2811 11.732C19.0536 11.6377 18.8468 11.4994 18.6727 11.3252C18.4986 11.151 18.3605 10.9442 18.2664 10.7166C18.1722 10.489 18.1237 10.2451 18.1238 9.99875C18.124 9.5013 18.3218 9.0243 18.6736 8.67267C19.0255 8.32104 19.5026 8.12358 20.0001 8.12375C20.4975 8.12392 20.9745 8.32168 21.3262 8.67355C21.6778 9.02542 21.8752 9.50255 21.8751 10Z" fill="#001589"/>
</g>
<defs>
<clipPath id="clip0_401_4098">
<rect width="30" height="30" fill="white"/>
</clipPath>
</defs>
</svg>
