<svg width="203" height="64" viewBox="0 0 203 64" fill="none" xmlns="http://www.w3.org/2000/svg">
<path d="M147.689 20.9297C149.097 20.4891 150.616 20.5924 152.068 20.7252C154.727 21.0626 156.856 23.4724 156.815 26.0847C156.523 26.0636 156.231 26.0468 155.943 26.032C155.971 23.5715 153.669 21.518 151.209 21.4779C150.093 21.4737 148.933 21.3641 147.864 21.7457C146.153 22.3845 144.826 24.0291 144.783 25.8401C144.811 26.7552 145.112 27.7124 145.793 28.3723C146.687 29.2599 147.84 29.8566 149.043 30.2466C150.644 30.7779 152.258 31.2818 153.805 31.9502C155.162 32.5279 156.319 33.6896 156.648 35.1233C157.049 36.6118 156.56 38.2331 155.605 39.4243C154.502 40.6577 152.89 41.518 151.183 41.4884C149.824 41.4652 148.383 41.5643 147.128 40.974C145.958 40.3499 144.846 39.4518 144.363 38.2036C144.058 37.5205 143.939 36.7805 143.881 36.0425C144.171 36.0467 144.465 36.0531 144.761 36.0636C144.716 38.4144 146.784 40.5945 149.223 40.5776C150.586 40.5355 152.059 40.799 153.314 40.1391C154.984 39.3463 156.09 37.5226 155.882 35.7073C155.705 34.476 154.857 33.3986 153.717 32.8568C151.146 31.5369 148.091 31.2228 145.746 29.4602C144.415 28.4777 143.667 26.7552 143.989 25.1444C144.327 23.23 145.806 21.5601 147.689 20.9297Z" fill="white"/>
<path d="M54.2827 21.1912C54.4406 21.1933 54.7565 21.1933 54.9144 21.1954C57.2728 27.8578 59.7371 34.4907 62.0673 41.1637C61.773 41.1616 61.481 41.1637 61.1889 41.1658C60.423 39.1081 59.709 37.0334 58.9755 34.9651C56.0525 34.9588 53.1295 34.9672 50.2086 34.9546C49.4665 37.0271 48.7504 39.1081 47.9736 41.1658C47.6469 41.1637 47.3245 41.1637 47 41.1658C49.4643 34.5203 51.8291 27.841 54.2827 21.1912ZM54.5834 22.6986C53.3112 26.5422 51.8162 30.312 50.4726 34.1323C53.1857 34.0965 55.8967 34.1365 58.6099 34.1176C57.3333 30.2888 55.8383 26.5338 54.5834 22.6986Z" fill="white"/>
<path d="M87.215 21.1975C87.5006 21.1848 87.7862 21.1722 88.0718 21.1595C88.0826 24.0543 88.0718 26.9512 88.0739 29.846C89.0995 28.0244 91.0705 26.7509 93.2125 26.6561C95.9083 26.4262 98.6085 28.0645 99.6167 30.5059C100.11 31.5475 100.138 32.7176 100.153 33.8435C100.142 36.2807 100.162 38.718 100.142 41.1574C99.8526 41.1595 99.5626 41.1637 99.2727 41.1722C99.197 38.3111 99.2944 35.4501 99.223 32.5911C99.0758 29.962 96.737 27.7187 94.0671 27.5015C91.9771 27.3328 89.8914 28.465 88.8247 30.2023C88.3422 31.0541 88.0848 32.024 88.0804 32.998C88.0631 35.7199 88.0934 38.4418 88.0675 41.1637C87.7754 41.1658 87.4833 41.1722 87.1934 41.1785C87.2301 34.5182 87.1847 27.8578 87.215 21.1975Z" fill="white"/>
<path d="M133.896 22.3571C134.171 22.3529 134.445 22.3487 134.72 22.3466C134.824 23.9827 134.733 25.6208 134.776 27.2591C136.029 27.2527 137.282 27.2612 138.535 27.2422C138.541 27.5226 138.548 27.8051 138.558 28.0897C137.297 28.0982 136.038 28.1087 134.781 28.094C134.753 31.1406 134.766 34.1893 134.774 37.2358C134.748 38.2774 135.343 39.2493 136.144 39.9029C136.819 40.449 137.697 40.6282 138.539 40.7631C138.539 41.0436 138.541 41.324 138.545 41.6065C137.074 41.577 135.655 40.8707 134.748 39.7469C133.98 38.64 133.833 37.2633 133.859 35.9603C133.887 31.4252 133.814 26.8901 133.896 22.3571Z" fill="white"/>
<path d="M80.5879 22.374C80.7999 22.3592 81.2218 22.3339 81.4339 22.3213C81.4944 23.9616 81.4598 25.6019 81.4577 27.2443C82.7255 27.2675 83.9934 27.2485 85.2613 27.2591C85.2656 27.4615 85.2764 27.8663 85.2829 28.0687C84.0085 28.132 82.7342 28.0961 81.4598 28.0877C81.4815 31.13 81.4403 34.1724 81.4793 37.2148C81.4879 39.1608 83.327 40.7189 85.2699 40.7611C85.2678 40.974 85.2613 41.3978 85.2591 41.6107C82.8618 41.5939 80.5749 39.6099 80.5965 37.2169C80.5857 32.2686 80.6052 27.3202 80.5879 22.374Z" fill="white"/>
<path d="M140.424 23.5526C140.718 23.5673 141.012 23.5821 141.311 23.6011C141.298 24.3643 141.298 25.1296 141.3 25.895C141.086 25.8992 140.658 25.9055 140.443 25.9097C140.426 25.1233 140.424 24.3369 140.424 23.5526Z" fill="white"/>
<path d="M105.518 27.2802C107.186 26.4727 109.218 26.4158 110.921 27.1558C112.619 27.8242 113.926 29.2958 114.491 30.9804C114.88 32.1273 114.806 33.3502 114.8 34.5414C110.795 34.5414 106.793 34.5393 102.788 34.5435C102.721 35.8085 102.928 37.1284 103.666 38.1973C104.718 39.8671 106.78 40.8222 108.772 40.6746C110.542 40.5334 112.288 39.7997 113.5 38.5115C113.725 38.6759 113.95 38.8425 114.177 39.0111C112.009 41.4316 108.106 42.3339 105.163 40.7484C103.24 39.7153 101.95 37.626 101.931 35.486C101.931 33.7908 101.719 32.0072 102.45 30.4132C103.075 29.0829 104.123 27.879 105.518 27.2802ZM104.38 29.1419C103.147 30.3226 102.625 32.0662 102.818 33.7234C106.524 33.658 110.233 33.7044 113.941 33.6981C113.954 32.6038 113.878 31.4674 113.32 30.4933C112.292 28.6296 110.124 27.2971 107.92 27.5058C106.58 27.5964 105.354 28.269 104.38 29.1419Z" fill="white"/>
<path d="M160.017 30.04C161.157 27.7883 163.788 26.4052 166.344 26.6666C168.287 26.9196 170.305 27.6133 171.554 29.1693C171.329 29.3316 171.106 29.4961 170.885 29.6647C169.838 28.5958 168.416 27.9549 166.956 27.6302C164.526 27.0166 161.863 28.3934 160.746 30.5228C159.983 31.9333 160.19 33.5821 160.16 35.1191C160.138 37.0883 161.22 39.0891 163.04 40.0126C165.599 41.3809 168.957 40.5228 170.898 38.5114C171.121 38.6717 171.346 38.8319 171.575 38.9943C169.466 41.3535 165.716 42.296 162.791 40.8665C160.673 39.8756 159.301 37.6049 159.303 35.332C159.29 33.5547 159.115 31.6614 160.017 30.04Z" fill="white"/>
<path d="M64.1004 33.8562C64.1112 31.5855 64.0852 29.3148 64.1134 27.044C64.3232 27.044 64.7408 27.044 64.9485 27.0462C65.0221 29.8693 64.9247 32.6966 64.9961 35.5197C65.0545 37.3624 66.1385 39.1587 67.8153 40.0337C70.1217 41.3746 73.3822 40.7316 74.966 38.6169C75.7903 37.6344 76.1495 36.363 76.1689 35.1107C76.1971 32.4183 76.1365 29.7259 76.1992 27.0335C76.4112 27.0335 76.8375 27.0377 77.0495 27.0398C77.0387 31.7415 77.0365 36.4453 77.0495 41.149C76.7618 41.1532 76.4718 41.1596 76.1862 41.1701C76.1624 40.2888 76.1624 39.4096 76.1711 38.5326C74.9573 40.2825 72.9452 41.6002 70.721 41.5749C67.759 41.7478 64.9853 39.5509 64.2973 36.7889C64.0658 35.8275 64.0982 34.8345 64.1004 33.8562Z" fill="white"/>
<path d="M121.763 27.0967C123.873 26.2386 126.417 26.6076 128.209 27.9801C129.388 28.9352 130.238 30.2867 130.519 31.7604C130.701 32.8652 130.654 33.989 130.658 35.1064C130.649 37.1241 130.673 39.1397 130.645 41.1574C130.361 41.1616 130.08 41.1658 129.801 41.1743C129.721 38.3048 129.864 35.4332 129.745 32.5658C129.585 29.8207 126.986 27.4425 124.148 27.55C121.335 27.4846 118.758 29.8291 118.628 32.57C118.57 35.429 118.613 38.2921 118.609 41.1511C118.319 41.1532 118.031 41.1553 117.746 41.1616C117.75 36.4473 117.689 31.7288 117.774 27.0166C117.981 27.025 118.395 27.044 118.602 27.0524C118.598 27.9443 118.604 28.8361 118.594 29.728C119.364 28.5789 120.428 27.588 121.763 27.0967Z" fill="white"/>
<path d="M177.216 27.1747C179.009 26.3778 181.175 26.479 182.895 27.4088C183.955 27.9084 184.734 28.8003 185.409 29.7174C185.416 28.8066 185.416 27.9 185.429 26.9913C185.712 26.9955 186 27.0018 186.288 27.0103C186.29 31.7077 186.283 36.4073 186.29 41.1047C186 41.1068 185.71 41.111 185.422 41.1195C185.416 40.2361 185.412 39.3527 185.414 38.4714C184.635 39.6099 183.585 40.6219 182.259 41.1216C180.011 42.0303 177.209 41.5875 175.45 39.9219C174.343 38.8741 173.538 37.4678 173.419 35.9519C173.332 34.9019 173.36 33.8456 173.38 32.7956C173.404 30.4153 174.953 28.0919 177.216 27.1747ZM178.531 27.6386C176.244 28.2373 174.314 30.2382 174.265 32.6101C174.254 34.2863 174.005 36.0805 174.801 37.6385C175.693 39.4517 177.666 40.7632 179.756 40.7294C182.655 40.8348 185.269 38.3196 185.379 35.5281C185.453 34.204 185.487 32.8568 185.204 31.5538C184.47 28.8488 181.355 26.8964 178.531 27.6386Z" fill="white"/>
<path d="M194.05 27.1263C195.858 26.3588 198.024 26.5106 199.736 27.4552C201.756 28.541 203.013 30.7737 202.992 33.0107C203.011 35.7221 202.992 38.4355 203 41.149C202.708 41.1511 202.421 41.1596 202.135 41.168C202.118 38.4461 202.141 35.7242 202.122 33.0023C202.12 31.1954 201.155 29.397 199.573 28.4335C197.438 26.9829 194.288 27.3582 192.511 29.1967C191.503 30.2066 190.962 31.6108 190.951 33.0128C190.934 35.7326 190.964 38.4566 190.938 41.1785C190.644 41.1596 190.354 41.1448 190.066 41.1343C190.09 36.441 190.077 31.7478 190.073 27.0546C190.285 27.0504 190.709 27.0398 190.921 27.0356C190.951 27.9232 190.949 28.813 190.947 29.7027C191.728 28.6 192.738 27.6028 194.05 27.1263Z" fill="white"/>
<path d="M140.422 41.189C140.45 36.4684 140.409 31.7499 140.441 27.0292C140.658 27.0335 141.093 27.0398 141.311 27.0419C141.294 31.7457 141.296 36.4473 141.309 41.1511C141.013 41.1616 140.716 41.1722 140.422 41.189Z" fill="white"/>
<path d="M27.9327 2.22102C28.7194 1.51223 29.6267 0.838695 30.7066 0.692113C31.7512 0.475024 32.8385 0.712525 33.7904 1.1634C34.8332 1.67551 35.5327 2.6385 36.3398 3.44006C38.854 6.00247 41.3329 8.59641 43.8062 11.1978C44.9622 12.415 46.1812 13.5728 47.2982 14.8271C45.8417 16.2409 44.3851 17.653 42.949 19.0835C42.114 19.9203 41.1102 20.6421 39.945 20.9204C38.9282 21.1988 37.8427 21.0596 36.8593 20.72C36.0077 20.4157 35.3657 19.7552 34.6829 19.193C33.3544 18.1057 31.4228 17.6975 29.8253 18.4174C28.7101 18.8015 27.9995 19.8313 26.9326 20.2951C25.2608 21.0744 23.127 20.7627 21.7707 19.5029C20.9728 18.757 20.2529 17.9313 19.4792 17.1594C18.5199 16.2261 18.0004 14.8549 18.1154 13.519C18.1544 12.2758 18.7667 11.1106 19.6239 10.2329C22.3941 7.56477 25.1996 4.93186 27.9327 2.22102Z" fill="#A151F2"/>
<path d="M20.7164 44.1788C22.0635 42.8558 24.1991 42.3752 25.9488 43.1434C27.1401 43.5201 27.8247 44.663 28.9269 45.1918C30.1329 45.8765 31.6322 45.8914 32.9236 45.446C34.1797 45.01 34.9683 43.8169 36.2077 43.3438C38.3304 42.4049 40.954 43.0896 42.4866 44.7911C44.0601 46.4981 45.743 48.1068 47.2682 49.8528C45.2958 51.8066 43.227 53.6621 41.275 55.64C39.3027 57.501 37.3488 59.3806 35.421 61.2899C34.3801 62.3048 33.1425 63.3105 31.6173 63.3587C29.9529 63.5684 28.3869 62.6741 27.2829 61.4977C24.5461 58.6032 21.7369 55.7754 18.9964 52.8828C17.7458 51.5914 17.1409 49.6116 17.757 47.8823C18.1781 46.2717 19.6087 45.2995 20.7164 44.1788Z" fill="#A151F2"/>
<path d="M12.7587 17.6864C13.9926 17.3208 15.3582 17.5138 16.4733 18.1409C17.2842 18.5937 17.8761 19.3229 18.5255 19.9686C19.2287 20.6922 19.9839 21.3992 20.4533 22.3083C21.1806 23.7667 21.0712 25.5869 20.1935 26.96C19.8725 27.4869 19.4347 27.9267 19.0005 28.359C17.5847 29.6894 17.0893 31.9401 17.9243 33.7139C18.3937 34.8457 19.4105 35.6102 19.9913 36.6734C20.9135 38.5864 20.3123 41.004 18.7537 42.4031C17.5903 43.444 16.5605 44.8189 14.9574 45.1751C13.2893 45.6446 11.432 45.0768 10.2612 43.8151C7.23865 40.7146 4.22909 37.5974 1.23621 34.4654C0.0375821 33.161 -0.333514 31.1663 0.317756 29.5168C0.642463 28.6281 1.31414 27.9341 1.98025 27.2866C4.83953 24.5182 7.71922 21.7721 10.5711 18.9963C11.2056 18.4285 11.9181 17.896 12.7587 17.6864Z" fill="#2081E2"/>
</svg>
