<svg width="305" height="95" viewBox="0 0 305 95" fill="none" xmlns="http://www.w3.org/2000/svg">
<path d="M221.532 30.4785C223.645 29.8176 225.923 29.9725 228.101 30.1718C232.089 30.6778 235.283 34.2926 235.221 38.211C234.783 38.1794 234.345 38.1541 233.913 38.1319C233.956 34.4412 230.502 31.3609 226.812 31.3008C225.138 31.2945 223.398 31.13 221.795 31.7025C219.228 32.6607 217.239 35.1275 217.174 37.8441C217.216 39.2167 217.667 40.6525 218.689 41.6424C220.03 42.9738 221.759 43.8688 223.564 44.4539C225.965 45.2508 228.387 46.0067 230.707 47.0092C232.742 47.8757 234.478 49.6183 234.971 51.7688C235.572 54.0016 234.838 56.4336 233.407 58.2204C231.752 60.0705 229.334 61.3608 226.774 61.3166C224.735 61.2818 222.574 61.4304 220.692 60.5449C218.936 59.6088 217.268 58.2616 216.544 56.3893C216.086 55.3647 215.908 54.2546 215.82 53.1477C216.255 53.154 216.697 53.1635 217.141 53.1793C217.073 56.7056 220.176 59.9757 223.833 59.9503C225.878 59.8871 228.088 60.2824 229.97 59.2926C232.476 58.1034 234.134 55.3678 233.823 52.6449C233.556 50.7979 232.284 49.1819 230.574 48.3691C226.718 46.3893 222.136 45.9181 218.618 43.2742C216.622 41.8005 215.499 39.2167 215.983 36.8005C216.489 33.9289 218.709 31.4241 221.532 30.4785Z" fill="black"/>
<path d="M81.424 30.8707C81.6609 30.8739 82.1347 30.8739 82.3717 30.877C85.9091 40.8707 89.6056 50.8201 93.1009 60.8296C92.6596 60.8264 92.2214 60.8296 91.7833 60.8327C90.6344 57.7461 89.5634 54.6341 88.4633 51.5317C84.0787 51.5222 79.6942 51.5348 75.3129 51.5158C74.1998 54.6246 73.1255 57.7461 71.9604 60.8327C71.4704 60.8296 70.9868 60.8296 70.5 60.8327C74.1965 50.8644 77.7437 40.8454 81.424 30.8707ZM81.8751 33.1319C79.9668 38.8973 77.7243 44.5519 75.7089 50.2825C79.7786 50.2287 83.8451 50.2888 87.9148 50.2603C86 44.5171 83.7574 38.8846 81.8751 33.1319Z" fill="black"/>
<path d="M130.823 30.8802C131.252 30.8613 131.68 30.8423 132.109 30.8233C132.125 35.1655 132.109 39.5108 132.112 43.853C133.65 41.1206 136.607 39.2104 139.82 39.0681C143.863 38.7234 147.914 41.1807 149.426 44.8429C150.166 46.4052 150.208 48.1604 150.231 49.8492C150.215 53.5051 150.244 57.161 150.215 60.8201C149.78 60.8232 149.345 60.8296 148.91 60.8422C148.796 56.5506 148.943 52.2591 148.835 47.9707C148.615 44.027 145.106 40.662 141.102 40.3363C137.967 40.0833 134.838 41.7815 133.238 44.3875C132.514 45.6652 132.128 47.1199 132.122 48.581C132.096 52.6639 132.141 56.7467 132.102 60.8296C131.664 60.8327 131.226 60.8422 130.791 60.8517C130.846 50.8612 130.778 40.8707 130.823 30.8802Z" fill="black"/>
<path d="M200.844 32.6196C201.256 32.6132 201.668 32.6069 202.08 32.6038C202.236 35.0579 202.1 37.5152 202.165 39.9725C204.044 39.963 205.923 39.9757 207.802 39.9472C207.812 40.3678 207.821 40.7916 207.838 41.2185C205.946 41.2312 204.057 41.247 202.171 41.2249C202.129 45.7948 202.148 50.3678 202.161 54.9377C202.122 56.5 203.015 57.9579 204.216 58.9383C205.228 59.7574 206.546 60.0262 207.808 60.2286C207.808 60.6493 207.812 61.0699 207.818 61.4937C205.611 61.4494 203.482 60.3899 202.122 58.7043C200.97 57.0439 200.75 54.9788 200.789 53.0244C200.831 46.2217 200.72 39.4191 200.844 32.6196Z" fill="black"/>
<path d="M120.883 32.6449C121.201 32.6227 121.834 32.5848 122.152 32.5658C122.243 35.0263 122.191 37.4867 122.187 39.9503C124.089 39.9851 125.991 39.9567 127.893 39.9725C127.899 40.2761 127.916 40.8833 127.925 41.1869C126.014 41.2818 124.102 41.228 122.191 41.2154C122.223 45.7789 122.161 50.3425 122.22 54.9061C122.233 57.8251 124.991 60.1622 127.906 60.2255C127.903 60.5449 127.893 61.1805 127.89 61.5C124.294 61.4747 120.863 58.4987 120.896 54.9092C120.88 47.4867 120.909 40.0642 120.883 32.6449Z" fill="black"/>
<path d="M210.637 34.4127C211.078 34.4349 211.519 34.457 211.967 34.4855C211.948 35.6303 211.948 36.7783 211.951 37.9263C211.63 37.9327 210.987 37.9421 210.666 37.9485C210.64 36.7688 210.637 35.5892 210.637 34.4127Z" fill="black"/>
<path d="M158.277 40.0041C160.779 38.7929 163.827 38.7075 166.381 39.8175C168.929 40.8201 170.889 43.0275 171.736 45.5544C172.32 47.2748 172.21 49.1091 172.2 50.896C166.193 50.896 160.189 50.8928 154.182 50.8991C154.081 52.7966 154.392 54.7764 155.499 56.3798C157.076 58.8845 160.169 60.3172 163.158 60.0958C165.813 59.8839 168.432 58.7833 170.249 56.851C170.587 57.0977 170.925 57.3475 171.265 57.6005C168.013 61.2312 162.159 62.5847 157.745 60.2065C154.86 58.6568 152.926 55.5228 152.896 52.3128C152.896 49.7701 152.578 47.0946 153.675 44.7037C154.613 42.7081 156.184 40.9023 158.277 40.0041ZM156.57 42.7966C154.72 44.5677 153.938 47.1831 154.227 49.6689C159.786 49.5708 165.349 49.6404 170.912 49.6309C170.931 47.9896 170.817 46.285 169.98 44.8239C168.439 42.0282 165.187 40.0294 161.88 40.3425C159.871 40.4785 158.031 41.4874 156.57 42.7966Z" fill="black"/>
<path d="M240.026 44.1439C241.736 40.7663 245.683 38.6917 249.515 39.0839C252.43 39.4634 255.458 40.5038 257.33 42.8378C256.993 43.0813 256.659 43.328 256.328 43.581C254.757 41.9776 252.625 41.0162 250.434 40.5291C246.789 39.6088 242.794 41.674 241.12 44.8682C239.974 46.9839 240.286 49.457 240.24 51.7625C240.208 54.7164 241.83 57.7176 244.56 59.1028C248.399 61.1553 253.436 59.8681 256.347 56.8511C256.681 57.0914 257.019 57.3318 257.363 57.5753C254.199 61.1142 248.574 62.5279 244.186 60.3836C241.009 58.8972 238.952 55.4912 238.955 52.082C238.935 49.4159 238.673 46.5759 240.026 44.1439Z" fill="black"/>
<path d="M96.1506 49.8681C96.1668 46.4621 96.1279 43.056 96.17 39.6499C96.4848 39.6499 97.1112 39.6499 97.4228 39.6531C97.5331 43.8877 97.3871 48.1287 97.4942 52.3634C97.5818 55.1274 99.2077 57.8219 101.723 59.1344C105.183 61.1458 110.073 60.1812 112.449 57.0091C113.685 55.5354 114.224 53.6284 114.253 51.7498C114.296 47.7112 114.205 43.6727 114.299 39.6341C114.617 39.6341 115.256 39.6404 115.574 39.6436C115.558 46.6961 115.555 53.7517 115.574 60.8074C115.143 60.8137 114.708 60.8232 114.279 60.839C114.244 59.517 114.244 58.1983 114.257 56.8827C112.436 59.5076 109.418 61.4842 106.081 61.4462C101.639 61.7055 97.4779 58.4102 96.4459 54.2672C96.0986 52.8251 96.1473 51.3355 96.1506 49.8681Z" fill="black"/>
<path d="M182.646 39.729C185.81 38.4418 189.627 38.9953 192.314 41.0541C194.083 42.4867 195.358 44.5139 195.78 46.7246C196.053 48.3817 195.981 50.0674 195.988 51.7435C195.975 54.7701 196.011 57.7935 195.968 60.82C195.543 60.8263 195.121 60.8327 194.703 60.8453C194.583 56.5411 194.797 52.2337 194.618 47.9326C194.378 43.815 190.48 40.2476 186.222 40.4089C182.003 40.3109 178.138 43.8276 177.943 47.939C177.856 52.2274 177.921 56.5221 177.914 60.8105C177.479 60.8137 177.048 60.8169 176.619 60.8264C176.626 53.7549 176.535 46.6771 176.661 39.6088C176.973 39.6215 177.593 39.6499 177.904 39.6626C177.898 41.0003 177.908 42.3381 177.891 43.6759C179.047 41.9523 180.644 40.4658 182.646 39.729Z" fill="black"/>
<path d="M265.824 39.846C268.514 38.6506 271.763 38.8023 274.343 40.197C275.933 40.9466 277.101 42.2843 278.114 43.66C278.124 42.2938 278.124 40.9339 278.143 39.5708C278.568 39.5772 279 39.5867 279.432 39.5993C279.435 46.6455 279.425 53.6948 279.435 60.7409C279 60.7441 278.565 60.7504 278.134 60.7631C278.124 59.438 278.117 58.1129 278.121 56.7909C276.952 58.4987 275.378 60.0167 273.389 60.7663C270.017 62.1293 265.814 61.4652 263.175 58.9668C261.514 57.395 260.307 55.2855 260.128 53.0117C259.998 51.4367 260.04 49.8523 260.07 48.2773C260.105 44.7068 262.429 41.2217 265.824 39.846ZM267.797 40.5417C264.367 41.4399 261.472 44.4412 261.397 47.999C261.381 50.5133 261.008 53.2046 262.202 55.5417C263.539 58.2615 266.499 60.2286 269.634 60.178C273.983 60.3362 277.903 56.5632 278.069 52.376C278.179 50.3899 278.231 48.3691 277.806 46.4146C276.706 42.357 272.032 39.4285 267.797 40.5417Z" fill="black"/>
<path d="M291.074 39.7733C293.788 38.6221 297.036 38.8498 299.603 40.2666C302.634 41.8953 304.52 45.2445 304.488 48.5999C304.517 52.667 304.488 56.7372 304.501 60.8074C304.062 60.8105 303.631 60.8232 303.202 60.8359C303.176 56.753 303.212 52.6701 303.183 48.5873C303.18 45.877 301.732 43.1793 299.36 41.734C296.157 39.5582 291.431 40.1211 288.767 42.8789C287.255 44.3937 286.443 46.5 286.427 48.6031C286.401 52.6828 286.446 56.7688 286.408 60.8517C285.966 60.8232 285.531 60.8011 285.1 60.7852C285.135 53.7454 285.116 46.7056 285.109 39.6657C285.427 39.6594 286.063 39.6436 286.382 39.6373C286.427 40.9687 286.424 42.3033 286.42 43.6379C287.592 41.9839 289.108 40.488 291.074 39.7733Z" fill="black"/>
<path d="M210.633 60.8675C210.675 53.7865 210.613 46.7088 210.662 39.6278C210.987 39.6341 211.639 39.6436 211.967 39.6468C211.941 46.7024 211.944 53.7549 211.963 60.8106C211.519 60.8264 211.074 60.8422 210.633 60.8675Z" fill="black"/>
<path d="M41.9 2.41545C43.0801 1.35227 44.4411 0.341967 46.0609 0.122093C47.6278 -0.203541 49.2588 0.152711 50.6866 0.829029C52.2507 1.59719 53.3 3.04167 54.5107 4.24402C58.2819 8.08762 62.0003 11.9785 65.7103 15.8806C67.4442 17.7064 69.2728 19.4431 70.9483 21.3245C68.7635 23.4453 66.5787 25.5634 64.4245 27.7092C63.172 28.9644 61.6663 30.0471 59.9184 30.4646C58.3933 30.8821 56.7651 30.6733 55.29 30.164C54.0125 29.7075 53.0495 28.7167 52.0253 27.8734C50.0325 26.2425 47.1352 25.6301 44.7389 26.71C43.0662 27.2862 42.0002 28.8308 40.3998 29.5266C37.8922 30.6956 34.6915 30.228 32.657 28.3382C31.4602 27.2194 30.3803 25.9808 29.2197 24.823C27.7808 23.4231 27.0015 21.3663 27.1741 19.3624C27.2325 17.4976 28.151 15.7498 29.4368 14.4333C33.5921 10.4311 37.8003 6.48171 41.9 2.41545Z" fill="#A151F2"/>
<path d="M31.0756 65.352C33.0962 63.3676 36.2997 62.6468 38.9243 63.799C40.7111 64.364 41.7381 66.0784 43.3913 66.8717C45.2004 67.8987 47.4492 67.9209 49.3863 67.253C51.2705 66.5989 52.4534 64.8093 54.3126 64.0996C57.4966 62.6913 61.432 63.7183 63.7309 66.2705C66.0911 68.831 68.6155 71.2441 70.9033 73.8631C67.9447 76.7938 64.8414 79.577 61.9135 82.5439C58.955 85.3354 56.0242 88.1548 53.1325 91.0187C51.5711 92.5411 49.7147 94.0496 47.4269 94.122C44.9304 94.4365 42.5814 93.095 40.9254 91.3304C36.8201 86.9886 32.6064 82.747 28.4956 78.408C26.6197 76.4709 25.7124 73.5012 26.6364 70.9073C27.2682 68.4915 29.4141 67.0331 31.0756 65.352Z" fill="#A151F2"/>
<path d="M19.138 25.6135C20.9888 25.0652 23.0373 25.3546 24.71 26.2953C25.9262 26.9744 26.8141 28.0682 27.7882 29.0368C28.843 30.1223 29.9758 31.1826 30.6799 32.5464C31.771 34.734 31.6068 37.4643 30.2903 39.5239C29.8088 40.3143 29.152 40.974 28.5007 41.6224C26.3771 43.618 25.634 46.994 26.8864 49.6548C27.5906 51.3525 29.1158 52.4992 29.9869 54.094C31.3702 56.9635 30.4684 60.59 28.1305 62.6885C26.3855 64.2499 24.8408 66.3122 22.4361 66.8466C19.934 67.5508 17.148 66.6991 15.3918 64.8065C10.858 60.1558 6.34363 55.48 1.85432 50.782C0.0563731 48.8254 -0.500271 45.8334 0.476633 43.3592C0.963694 42.026 1.97121 40.9851 2.97038 40.0138C7.2593 35.8612 11.5788 31.7421 15.8566 27.5784C16.8085 26.7267 17.8772 25.928 19.138 25.6135Z" fill="#2081E2"/>
</svg>
