<svg width="48" height="64" viewBox="0 0 48 64" fill="none" xmlns="http://www.w3.org/2000/svg">
<path d="M27.9327 2.22102C28.7194 1.51223 29.6267 0.838695 30.7066 0.692113C31.7512 0.475024 32.8385 0.712525 33.7904 1.1634C34.8332 1.67551 35.5327 2.6385 36.3398 3.44006C38.854 6.00247 41.3329 8.59641 43.8062 11.1978C44.9622 12.415 46.1812 13.5728 47.2982 14.8271C45.8417 16.2409 44.3851 17.653 42.949 19.0835C42.114 19.9203 41.1102 20.6421 39.945 20.9204C38.9282 21.1988 37.8427 21.0596 36.8593 20.72C36.0077 20.4157 35.3657 19.7552 34.6829 19.193C33.3544 18.1057 31.4228 17.6975 29.8253 18.4174C28.7101 18.8015 27.9995 19.8313 26.9326 20.2951C25.2608 21.0744 23.127 20.7627 21.7707 19.5029C20.9728 18.757 20.2529 17.9313 19.4792 17.1594C18.5199 16.2261 18.0004 14.8549 18.1154 13.519C18.1544 12.2758 18.7667 11.1106 19.6239 10.2329C22.3941 7.56477 25.1996 4.93186 27.9327 2.22102Z" fill="#A151F2"/>
<path d="M20.7164 44.1788C22.0635 42.8558 24.1991 42.3752 25.9488 43.1434C27.1401 43.5201 27.8247 44.663 28.9269 45.1918C30.1329 45.8765 31.6322 45.8914 32.9236 45.446C34.1797 45.01 34.9683 43.8169 36.2077 43.3438C38.3304 42.4049 40.954 43.0896 42.4866 44.7911C44.0601 46.4981 45.743 48.1068 47.2682 49.8528C45.2958 51.8066 43.227 53.6621 41.275 55.64C39.3027 57.501 37.3488 59.3806 35.421 61.2899C34.3801 62.3048 33.1425 63.3105 31.6173 63.3587C29.9529 63.5684 28.3869 62.6741 27.2829 61.4977C24.5461 58.6032 21.7369 55.7754 18.9964 52.8828C17.7458 51.5914 17.1409 49.6116 17.757 47.8823C18.1781 46.2717 19.6087 45.2995 20.7164 44.1788Z" fill="#A151F2"/>
<path d="M12.7587 17.6864C13.9926 17.3208 15.3582 17.5138 16.4733 18.1409C17.2842 18.5937 17.8761 19.3229 18.5255 19.9686C19.2287 20.6922 19.9839 21.3992 20.4533 22.3083C21.1806 23.7667 21.0712 25.5869 20.1935 26.96C19.8725 27.4869 19.4347 27.9267 19.0005 28.359C17.5847 29.6894 17.0893 31.9401 17.9243 33.7139C18.3937 34.8457 19.4105 35.6102 19.9913 36.6734C20.9135 38.5864 20.3123 41.004 18.7537 42.4031C17.5903 43.444 16.5605 44.8189 14.9574 45.1751C13.2893 45.6446 11.432 45.0768 10.2612 43.8151C7.23865 40.7146 4.22909 37.5974 1.23621 34.4654C0.0375821 33.161 -0.333514 31.1663 0.317756 29.5168C0.642463 28.6281 1.31414 27.9341 1.98025 27.2866C4.83953 24.5182 7.71922 21.7721 10.5711 18.9963C11.2056 18.4285 11.9181 17.896 12.7587 17.6864Z" fill="#2081E2"/>
</svg>
