<svg width="1313" height="928" viewBox="0 0 1313 928" fill="none" xmlns="http://www.w3.org/2000/svg">
<path d="M966.908 568.221L967.74 568.075L967.031 567.326L1034.49 509.266L970.573 721.387L966.908 568.221ZM800.297 865.561L883.012 759.225L965.567 729.028L800.297 865.561ZM380.491 768.887L289.031 569.805L459.214 816.402L380.491 768.887ZM316.94 343.189L284.79 552.955L280.662 449.621L316.94 343.189ZM416.625 277.965L323.336 330.79L469.009 171.553L416.625 277.965ZM683.289 120.088L567.083 176.228L477.453 166.414L683.289 120.088ZM1017.18 386.641L903.648 212.547L975.918 293.041L1017.18 386.641ZM1021.67 399.333L1035.22 506.426L967.962 564.321L1021.67 399.333ZM882.228 757.105L723.772 610.991H723.809L723.465 610.679L964.467 568.646L882.228 757.105ZM884.053 757.047L965.327 570.799L969.042 725.958L884.053 757.047ZM675.594 826.445L722.117 611.736L880.903 758.155L675.594 826.445ZM677.324 827.634L880.163 760.178L794.711 870.033L677.324 827.634ZM674.803 828.519L790.904 870.453L576.046 884.629L674.803 828.519ZM671.764 828.33L572.443 884.741L465.344 820.102L671.764 828.33ZM433.622 610.791L461.388 816.632L286.396 563.068L433.622 610.791ZM794.634 190.96L570.479 176.457L690.197 118.619L794.634 190.96ZM797.958 191.19L797.94 191.174L797.88 191.17L697.29 121.493L891.118 202.399L797.958 191.19ZM800.122 193.155L896.592 204.761L1017.8 390.633L800.122 193.155ZM778.952 370.983L964.377 566.944L722.716 609.094L778.952 370.983ZM719.238 610.991L463.12 817.182L435.301 610.952L719.238 610.991ZM472.032 385.813L286.881 557.971L417.71 279.526L472.032 385.813ZM473.01 384.095L418.995 278.409L565.265 179.434L473.01 384.095ZM777.864 367.586L569.565 178.094L796.697 192.791L777.864 367.586ZM474.375 385.08L567.505 178.48L776.456 368.563L474.375 385.08ZM721.128 608.552L721.124 608.569L475.119 386.736L777.447 370.204L721.151 608.573L721.128 608.552ZM473.609 387.625L719.437 609.297H435.342L473.609 387.625ZM779.426 368.401L798.248 193.71L1019.55 394.471L779.525 368.558L779.563 368.394L779.426 368.401ZM285.925 561.139L471.828 388.28L433.718 609.047L285.925 561.139ZM673.853 826.717L464.318 818.366L720.323 612.266L673.853 826.717ZM780.68 370.385L1020.92 396.322L965.707 565.928L780.68 370.385ZM472.793 167.606L564.854 177.686L419.369 276.13L472.793 167.606ZM415.381 280.602L285.985 555.996L319.908 334.663L415.381 280.602ZM1036.93 506.853L1023.12 397.711L1024.35 398.83L1022.82 395.354L1022.81 395.282L1022.74 395.176L977.358 292.215L977.304 292.089L897.706 203.437L897.601 203.277L690.341 116.767L472.275 165.846L471.841 165.799L471.638 166.212L318.389 333.73L318.361 333.913L279.062 449.212L279.011 449.366L283.473 561.141L282.692 561.867L283.513 562.133L283.624 564.903L284.301 563.462L379.116 769.847L379.224 770.084L461.534 819.763L461.667 819.954L461.838 819.961L461.885 820.323L462.133 820.125L572.233 886.577L794.877 871.887L795.266 872.028L795.571 871.635L970.281 727.302L970.711 727.146L970.699 726.669L1036.88 507.03L1036.93 506.853Z" fill="#3B3B3C" fill-opacity="0.2"/>
<path d="M566.404 175.787L545.827 163.53L535.697 157.495V194.078L566.404 212.368V175.787Z" fill="#F30775"/>
<path d="M568.045 212.368L598.751 194.078V157.495L588.016 163.891L568.045 175.787V212.368Z" fill="#F30775"/>
<path d="M536.518 156.03L567.224 174.321L597.93 156.03L567.224 137.738L536.518 156.03Z" fill="#F30775"/>
<path d="M535.697 157.496L545.827 163.531L566.404 175.788V212.369L535.697 194.079V157.496ZM597.93 156.03L567.224 174.321L536.518 156.03L567.224 137.738L597.93 156.03ZM598.751 157.496V194.079L568.045 212.369V175.788L588.016 163.892L598.751 157.496ZM567.634 136.028C567.382 135.878 567.067 135.878 566.814 136.028L534.466 155.297C534.212 155.447 534.056 155.728 534.056 156.03V194.568C534.056 194.87 534.212 195.149 534.466 195.302L566.814 214.57L567.224 214.682L567.634 214.57L599.982 195.302C600.236 195.149 600.392 194.87 600.392 194.568V156.03C600.392 155.728 600.236 155.447 599.982 155.297L567.634 136.028Z" fill="#CCCCC9" fill-opacity="0.2"/>
<path d="M1019.82 390.48L999.245 378.224L989.116 372.191V408.772L1019.82 427.063V390.48Z" fill="#737373"/>
<path d="M1021.46 427.063L1052.17 408.772V372.191L1042.04 378.224L1021.46 390.48V427.063Z" fill="#737373"/>
<path d="M989.937 370.725L1020.64 389.016L1051.35 370.725L1020.64 352.433L989.937 370.725Z" fill="#737373"/>
<path d="M989.116 372.19L999.246 378.224L1019.82 390.48V427.063L989.116 408.772V372.19ZM1052.17 372.19V408.772L1021.46 427.063V390.48L1042.04 378.224L1052.17 372.19ZM1051.35 370.724L1020.64 389.015L989.937 370.724L1020.64 352.433L1051.35 370.724ZM1053.4 369.991L1021.05 350.721C1020.8 350.57 1020.49 350.57 1020.23 350.721L987.885 369.991C987.632 370.142 987.475 370.421 987.475 370.724V409.261C987.475 409.562 987.632 409.842 987.885 409.994L1020.23 429.262L1020.64 429.376L1021.05 429.262L1053.4 409.994C1053.65 409.842 1053.81 409.562 1053.81 409.261V370.724C1053.81 370.421 1053.65 370.142 1053.4 369.991Z" fill="#CCCCC9" fill-opacity="0.2"/>
<path d="M419.485 274.451L405.221 265.954L399.042 262.275V286.63L419.485 298.807V274.451Z" fill="#737373"/>
<path d="M440.749 260.809L420.306 272.987L399.863 260.809L420.306 248.63L440.749 260.809ZM441.57 262.275V286.63L421.127 298.807V274.452L435.392 265.955L441.57 262.275ZM399.042 262.275L405.221 265.955L419.485 274.452V298.807L399.042 286.63V262.275ZM419.896 301.007L420.306 301.12L420.716 301.007L442.801 287.851C443.055 287.701 443.211 287.421 443.211 287.118V260.809C443.211 260.506 443.055 260.226 442.801 260.076L420.716 246.92C420.464 246.769 420.15 246.769 419.896 246.92L397.811 260.076C397.558 260.226 397.401 260.506 397.401 260.809V287.118C397.401 287.421 397.558 287.701 397.811 287.851L419.896 301.007Z" fill="#CCCCC9" fill-opacity="0.2"/>
<path d="M421.127 298.807L441.57 286.63V262.275L435.392 265.954L421.127 274.451V298.807Z" fill="#737373"/>
<path d="M399.863 260.807L420.306 272.986L440.749 260.807L420.306 248.629L399.863 260.807Z" fill="#737373"/>
<path d="M471.518 380.676L450.942 368.42L440.812 362.387V398.968L471.518 417.257V380.676Z" fill="#737373"/>
<path d="M473.159 417.257L503.865 398.968V362.387L493.736 368.42L473.159 380.676V417.257Z" fill="#737373"/>
<path d="M441.632 360.917L472.339 379.208L503.045 360.917L472.339 342.626L441.632 360.917Z" fill="#737373"/>
<path d="M440.812 362.386L450.942 368.419L471.518 380.676V417.257L440.812 398.967V362.386ZM503.865 362.386V398.967L473.159 417.257V380.676L493.736 368.419L503.865 362.386ZM503.045 360.918L472.339 379.209L441.633 360.918L472.339 342.627L503.045 360.918ZM472.749 340.916C472.496 340.766 472.181 340.766 471.928 340.916L439.581 360.185C439.327 360.337 439.171 360.617 439.171 360.918V399.455C439.171 399.758 439.327 400.037 439.581 400.188L471.928 419.458L472.339 419.57L472.749 419.458L505.096 400.188C505.351 400.037 505.507 399.758 505.507 399.455V360.918C505.507 360.617 505.351 360.337 505.096 360.185L472.749 340.916Z" fill="#CCCCC9" fill-opacity="0.2"/>
<path d="M797.884 187.837L777.473 175.681L767.176 169.546V206.129L797.884 224.418V187.837Z" fill="#737373"/>
<path d="M799.525 224.418L830.231 206.129V169.546L821.303 174.865L799.525 187.837V224.418Z" fill="#737373"/>
<path d="M767.997 168.081L798.704 186.372L829.411 168.081L798.704 149.789L767.997 168.081Z" fill="#737373"/>
<path d="M767.176 169.546L777.473 175.681L797.884 187.838V224.419L767.176 206.129V169.546ZM829.411 168.08L798.705 186.371L767.997 168.08L798.705 149.789L829.411 168.08ZM830.231 169.546V206.129L799.525 224.419V187.838L821.303 174.865L830.231 169.546ZM799.115 148.078C798.861 147.928 798.547 147.928 798.294 148.078L765.945 167.347C765.691 167.498 765.535 167.777 765.535 168.08V206.617C765.535 206.92 765.691 207.199 765.945 207.35L798.294 226.618L798.705 226.732L799.115 226.618L831.462 207.35C831.715 207.199 831.873 206.92 831.873 206.617V168.08C831.873 167.777 831.715 167.498 831.462 167.347L799.115 148.078Z" fill="#CCCCC9" fill-opacity="0.2"/>
<path d="M720.803 606.535L676.115 579.914V633.152L720.803 659.773V606.535Z" fill="#737373"/>
<path d="M722.444 659.773L767.132 633.152V579.914L722.444 606.535V659.773Z" fill="#737373"/>
<path d="M676.935 578.448L721.623 605.069L766.311 578.448L721.623 551.829L676.935 578.448Z" fill="#737373"/>
<path d="M767.132 633.153L722.444 659.774V606.536L767.132 579.915V633.153ZM676.115 579.915L720.803 606.536V659.774L676.115 633.153V579.915ZM766.311 578.448L721.623 605.069L676.935 578.448L721.623 551.829L766.311 578.448ZM722.033 550.119C721.779 549.968 721.466 549.968 721.213 550.119L674.884 577.715C674.631 577.866 674.473 578.145 674.473 578.448V633.642C674.473 633.945 674.631 634.225 674.884 634.376L721.213 661.972L721.623 662.087L722.033 661.972L768.363 634.376C768.617 634.225 768.773 633.945 768.773 633.642V578.448C768.773 578.145 768.617 577.866 768.363 577.715L722.033 550.119Z" fill="#CCCCC9" fill-opacity="0.2"/>
<path d="M402.835 584.574L433.541 602.866V639.447L402.835 621.155V584.574ZM465.068 583.108L434.362 601.399L403.656 583.108L434.362 564.817L465.068 583.108ZM435.182 602.866L465.889 584.574V621.155L435.182 639.447V602.866ZM467.53 621.645V583.108C467.53 582.805 467.374 582.525 467.119 582.376L434.772 563.106C434.519 562.956 434.206 562.956 433.951 563.106L401.604 582.376C401.351 582.525 401.194 582.805 401.194 583.108V621.645C401.194 621.948 401.351 622.227 401.604 622.378L433.951 641.645L434.362 641.76L434.772 641.645L467.119 622.378C467.374 622.227 467.53 621.948 467.53 621.645Z" fill="#CCCCC9" fill-opacity="0.2"/>
<path d="M433.541 602.866L402.835 584.574V621.155L433.541 639.447V602.866Z" fill="#A151F2"/>
<path d="M465.889 584.574L435.182 602.866V639.447L465.889 621.155V584.574Z" fill="#A151F2"/>
<path d="M434.362 601.4L465.068 583.109L434.362 564.818L403.656 583.109L434.362 601.4Z" fill="#A151F2"/>
<path d="M283.488 561.991L268.609 553.128L260.829 548.495V575.488L283.488 588.986V561.991Z" fill="#737373"/>
<path d="M285.129 588.986L307.787 575.488V548.495L300.634 552.757L285.129 561.991V588.986Z" fill="#737373"/>
<path d="M261.65 547.029L284.309 560.526L306.966 547.029L284.309 533.533L261.65 547.029Z" fill="#737373"/>
<path d="M260.829 548.495L268.609 553.128L283.488 561.991V588.986L260.829 575.488V548.495ZM306.966 547.028L284.309 560.526L261.65 547.028L284.309 533.533L306.966 547.028ZM307.787 548.495V575.488L285.129 588.986V561.991L300.634 552.757L307.787 548.495ZM284.719 531.822C284.466 531.672 284.151 531.672 283.898 531.822L259.598 546.295C259.345 546.446 259.188 546.725 259.188 547.028V575.978C259.188 576.279 259.345 576.558 259.598 576.711L283.898 591.185L284.309 591.299L284.719 591.185L309.018 576.711C309.272 576.558 309.428 576.279 309.428 575.978V547.028C309.428 546.725 309.272 546.446 309.018 546.295L284.719 531.822Z" fill="#CCCCC9" fill-opacity="0.2"/>
<path d="M794.291 865.626L771.634 852.13V879.121L794.291 892.617V865.626Z" fill="#737373"/>
<path d="M795.932 892.617L818.591 879.121V852.13L795.932 865.626V892.617Z" fill="#737373"/>
<path d="M772.454 850.661L795.112 864.157L817.771 850.661L795.112 837.164L772.454 850.661Z" fill="#737373"/>
<path d="M818.592 879.121L795.932 892.617V865.625L818.592 852.129V879.121ZM771.634 852.129L794.291 865.625V892.617L771.634 879.121V852.129ZM795.112 864.159L772.454 850.663L795.112 837.165L817.771 850.663L795.112 864.159ZM819.823 849.93L795.522 835.457C795.269 835.304 794.954 835.304 794.702 835.457L770.403 849.93C770.15 850.08 769.993 850.36 769.993 850.663V879.61C769.993 879.912 770.15 880.191 770.403 880.342L794.702 894.816L795.112 894.932L795.522 894.816L819.823 880.342C820.075 880.191 820.233 879.912 820.233 879.61V850.663C820.233 850.36 820.075 850.08 819.823 849.93Z" fill="#CCCCC9" fill-opacity="0.2"/>
<path d="M881.696 753.047L859.037 739.55V766.541L881.696 780.039V753.047Z" fill="#737373"/>
<path d="M883.337 780.039L905.996 766.541V739.55L883.337 753.047V780.039Z" fill="#737373"/>
<path d="M859.858 738.083L882.517 751.579L905.176 738.083L882.517 724.586L859.858 738.083Z" fill="#737373"/>
<path d="M905.996 766.542L883.337 780.039V753.048L905.996 739.55V766.542ZM859.037 739.55L881.696 753.048V780.039L859.037 766.542V739.55ZM882.516 751.58L859.857 738.084L882.516 724.586L905.176 738.084L882.516 751.58ZM907.227 737.351L882.927 722.876C882.674 722.724 882.359 722.724 882.106 722.876L857.806 737.351C857.553 737.501 857.396 737.781 857.396 738.084V767.031C857.396 767.334 857.553 767.614 857.806 767.765L882.106 782.239L882.516 782.353L882.927 782.239L907.227 767.765C907.48 767.614 907.637 767.334 907.637 767.031V738.084C907.637 737.781 907.48 737.501 907.227 737.351Z" fill="#CCCCC9" fill-opacity="0.2"/>
<path d="M801.163 350.196L778.506 363.694L755.846 350.196L778.506 336.701L801.163 350.196ZM801.984 351.663V378.656L779.326 392.154V365.16L795.545 355.498L801.984 351.663ZM755.026 351.663L762.805 356.296L777.685 365.16V392.154L755.026 378.656V351.663ZM778.095 394.353L778.506 394.467L778.916 394.353L803.214 379.879C803.467 379.728 803.625 379.449 803.625 379.146V350.196C803.625 349.895 803.467 349.616 803.214 349.463L778.916 334.989C778.663 334.838 778.348 334.838 778.095 334.989L753.795 349.463C753.542 349.616 753.385 349.895 753.385 350.196V379.146C753.385 379.449 753.542 379.728 753.795 379.879L778.095 394.353Z" fill="#CCCCC9" fill-opacity="0.2"/>
<path d="M777.685 365.159L762.805 356.295L755.026 351.662V378.655L777.685 392.153V365.159Z" fill="#F30775"/>
<path d="M779.326 392.153L801.984 378.655V351.662L795.545 355.497L779.326 365.159V392.153Z" fill="#F30775"/>
<path d="M755.846 350.196L778.506 363.693L801.163 350.196L778.506 336.7L755.846 350.196Z" fill="#F30775"/>
<path d="M965.237 565.33L951.27 557.01L942.58 551.834V578.827L965.237 592.325V565.33Z" fill="#001589"/>
<path d="M966.879 592.325L989.536 578.827V551.834L981.917 556.372L966.879 565.33V592.325Z" fill="#001589"/>
<path d="M943.4 550.367L966.058 563.863L988.715 550.367L966.058 536.87L943.4 550.367Z" fill="#001589"/>
<path d="M942.58 551.834L951.27 557.011L965.237 565.33V592.325L942.58 578.828V551.834ZM989.536 551.834V578.828L966.879 592.325V565.33L981.917 556.372L989.536 551.834ZM988.716 550.368L966.058 563.864L943.401 550.368L966.058 536.87L988.716 550.368ZM966.468 535.16C966.216 535.009 965.902 535.009 965.648 535.16L941.349 549.635C941.095 549.785 940.939 550.065 940.939 550.368V579.317C940.939 579.62 941.095 579.899 941.349 580.048L965.648 594.523L966.058 594.638L966.468 594.523L990.767 580.048C991.02 579.899 991.177 579.62 991.177 579.317V550.368C991.177 550.065 991.02 549.785 990.767 549.635L966.468 535.16Z" fill="#CCCCC9" fill-opacity="0.2"/>
<path d="M275.751 447.488L266.739 442.12L262.661 439.69V455.285L275.751 463.082V447.488Z" fill="#737373"/>
<path d="M289.663 438.223L276.572 446.021L263.481 438.223L276.572 430.425L289.663 438.223ZM262.661 439.69L266.739 442.119L275.751 447.487V463.081L262.661 455.285V439.69ZM290.483 439.69V455.285L277.393 463.081V447.487L285.822 442.465L290.483 439.69ZM276.162 465.283L276.572 465.396L276.982 465.283L291.714 456.506C291.969 456.355 292.124 456.076 292.124 455.773V438.223C292.124 437.92 291.969 437.641 291.714 437.49L276.982 428.715C276.728 428.564 276.414 428.564 276.162 428.715L261.43 437.49C261.175 437.641 261.019 437.92 261.019 438.223V455.773C261.019 456.076 261.175 456.355 261.43 456.506L276.162 465.283Z" fill="#CCCCC9" fill-opacity="0.2"/>
<path d="M277.393 463.082L290.483 455.285V439.69L285.822 442.465L277.393 447.488V463.082Z" fill="#737373"/>
<path d="M263.481 438.223L276.572 446.021L289.663 438.223L276.572 430.425L263.481 438.223Z" fill="#737373"/>
<path d="M462.504 814.782L449.414 806.984V822.578L462.504 830.376V814.782Z" fill="#737373"/>
<path d="M464.145 830.376L477.236 822.578V806.984L464.145 814.782V830.376Z" fill="#737373"/>
<path d="M463.325 813.314L476.415 805.518L463.325 797.719L450.234 805.518L463.325 813.314Z" fill="#737373"/>
<path d="M477.236 822.579L464.145 830.376V814.782L477.236 806.985V822.579ZM449.414 806.985L462.504 814.782V830.376L449.414 822.579V806.985ZM476.415 805.518L463.325 813.314L450.234 805.518L463.325 797.719L476.415 805.518ZM478.467 804.785L463.735 796.01C463.482 795.858 463.169 795.858 462.914 796.01L448.183 804.785C447.928 804.936 447.772 805.215 447.772 805.518V823.068C447.772 823.371 447.928 823.65 448.183 823.801L462.914 832.574L463.325 832.689L463.735 832.574L478.467 823.801C478.721 823.65 478.877 823.371 478.877 823.068V805.518C478.877 805.215 478.721 804.936 478.467 804.785Z" fill="#CCCCC9" fill-opacity="0.2"/>
<path d="M572.066 882.616L558.975 874.82V890.412L572.066 898.209V882.616Z" fill="#737373"/>
<path d="M573.707 898.209L586.796 890.412V874.82L573.707 882.616V898.209Z" fill="#737373"/>
<path d="M572.886 881.149L585.975 873.352L572.886 865.554L559.796 873.352L572.886 881.149Z" fill="#737373"/>
<path d="M586.796 890.412L573.707 898.21V882.616L586.796 874.82V890.412ZM558.975 874.82L572.066 882.616V898.21L558.975 890.412V874.82ZM585.975 873.352L572.886 881.15L559.796 873.352L572.886 865.554L585.975 873.352ZM588.027 872.62L573.297 863.844C573.042 863.691 572.729 863.691 572.476 863.844L557.744 872.62C557.49 872.771 557.334 873.05 557.334 873.352V890.901C557.334 891.203 557.49 891.482 557.744 891.633L572.476 900.409L572.886 900.523L573.297 900.409L588.027 891.633C588.281 891.482 588.437 891.203 588.437 890.901V873.352C588.437 873.05 588.281 872.771 588.027 872.62Z" fill="#CCCCC9" fill-opacity="0.2"/>
<path d="M318.34 332.798L309.328 327.43L305.25 325.002V340.596L318.34 348.392V332.798Z" fill="#737373"/>
<path d="M319.981 348.392L333.072 340.596V325.002L328.994 327.43L319.981 332.798V348.392Z" fill="#737373"/>
<path d="M306.07 323.536L319.161 331.334L332.251 323.536L319.161 315.738L306.07 323.536Z" fill="#737373"/>
<path d="M305.25 325.002L309.328 327.431L318.34 332.798V348.392L305.25 340.596V325.002ZM333.072 325.002V340.596L319.981 348.392V332.798L328.993 327.431L333.072 325.002ZM332.251 323.536L319.161 331.334L306.07 323.536L319.161 315.738L332.251 323.536ZM319.571 314.026C319.318 313.877 319.003 313.877 318.75 314.026L304.019 322.803C303.766 322.953 303.608 323.233 303.608 323.536V341.084C303.608 341.387 303.766 341.666 304.019 341.819L318.75 350.594L319.161 350.707L319.571 350.594L334.303 341.819C334.556 341.666 334.713 341.387 334.713 341.084V323.536C334.713 323.233 334.556 322.953 334.303 322.803L319.571 314.026Z" fill="#CCCCC9" fill-opacity="0.2"/>
<path d="M896.241 203.669L887.23 198.301L883.152 195.872V211.466L896.241 219.264V203.669Z" fill="#737373"/>
<path d="M897.882 219.264L910.972 211.466V195.872L906.894 198.301L897.882 203.669V219.264Z" fill="#737373"/>
<path d="M883.973 194.405L897.062 202.203L910.152 194.405L897.062 186.607L883.973 194.405Z" fill="#737373"/>
<path d="M883.152 195.873L887.23 198.301L896.241 203.669V219.265L883.152 211.467V195.873ZM910.973 195.873V211.467L897.882 219.265V203.669L906.894 198.301L910.973 195.873ZM910.152 194.405L897.061 202.203L883.972 194.405L897.061 186.607L910.152 194.405ZM897.472 184.897C897.219 184.746 896.905 184.746 896.651 184.897L881.921 193.672C881.666 193.824 881.51 194.103 881.51 194.405V211.956C881.51 212.257 881.666 212.537 881.921 212.689L896.651 221.464L897.061 221.578L897.472 221.464L912.203 212.689C912.456 212.537 912.614 212.257 912.614 211.956V194.405C912.614 194.103 912.456 193.824 912.203 193.672L897.472 184.897Z" fill="#CCCCC9" fill-opacity="0.2"/>
<path d="M976.39 288.321L967.379 282.954L963.301 280.525V296.119L976.39 303.917V288.321Z" fill="#737373"/>
<path d="M990.301 279.059L977.21 286.855L964.121 279.059L977.21 271.261L990.301 279.059ZM991.121 280.525V296.119L978.031 303.917V288.321L987.041 282.953L991.121 280.525ZM963.301 280.525L967.379 282.953L976.39 288.321V303.917L963.301 296.119V280.525ZM976.8 306.117L977.21 306.23L977.621 306.117L992.352 297.342C992.605 297.191 992.763 296.91 992.763 296.609V279.059C992.763 278.756 992.605 278.476 992.352 278.324L977.621 269.549C977.368 269.398 977.054 269.398 976.8 269.549L962.07 278.324C961.815 278.476 961.659 278.756 961.659 279.059V296.609C961.659 296.91 961.815 297.191 962.07 297.342L976.8 306.117Z" fill="#CCCCC9" fill-opacity="0.2"/>
<path d="M978.031 303.917L991.121 296.119V280.525L987.041 282.954L978.031 288.321V303.917Z" fill="#737373"/>
<path d="M964.121 279.059L977.21 286.855L990.301 279.059L977.21 271.261L964.121 279.059Z" fill="#737373"/>
<path d="M969.416 724.098L956.327 716.301V731.895L969.416 739.692V724.098Z" fill="#737373"/>
<path d="M971.057 739.692L984.148 731.895V716.301L971.057 724.098V739.692Z" fill="#737373"/>
<path d="M970.237 722.632L983.327 714.834L970.237 707.036L957.148 714.834L970.237 722.632Z" fill="#737373"/>
<path d="M984.148 731.894L971.057 739.692V724.098L984.148 716.3V731.894ZM956.327 716.3L969.416 724.098V739.692L956.327 731.894V716.3ZM983.327 714.834L970.237 722.632L957.148 714.834L970.237 707.036L983.327 714.834ZM985.379 714.102L970.647 705.326C970.394 705.173 970.081 705.173 969.826 705.326L955.096 714.102C954.842 714.251 954.686 714.531 954.686 714.834V732.383C954.686 732.686 954.842 732.966 955.096 733.117L969.826 741.891L970.237 742.005L970.647 741.891L985.379 733.117C985.631 732.966 985.789 732.686 985.789 732.383V714.834C985.789 714.531 985.631 714.251 985.379 714.102Z" fill="#CCCCC9" fill-opacity="0.2"/>
<path d="M1035.27 504.167L1026.26 498.8L1022.18 496.371V511.965L1035.27 519.761V504.167Z" fill="#737373"/>
<path d="M1036.91 519.761L1050.01 511.965V496.371L1044.87 499.429L1036.91 504.167V519.761Z" fill="#737373"/>
<path d="M1023 494.902L1036.09 502.7L1049.19 494.902L1036.09 487.105L1023 494.902Z" fill="#737373"/>
<path d="M1022.18 496.371L1026.26 498.8L1035.27 504.167V519.761L1022.18 511.965V496.371ZM1049.19 494.903L1036.09 502.701L1023 494.903L1036.09 487.106L1049.19 494.903ZM1050.01 496.371V511.965L1036.91 519.761V504.167L1044.87 499.43L1050.01 496.371ZM1036.5 485.395C1036.25 485.245 1035.94 485.245 1035.68 485.395L1020.95 494.17C1020.7 494.322 1020.54 494.602 1020.54 494.903V512.455C1020.54 512.756 1020.7 513.035 1020.95 513.188L1035.68 521.963L1036.09 522.076L1036.5 521.963L1051.24 513.188C1051.49 513.035 1051.65 512.756 1051.65 512.455V494.903C1051.65 494.602 1051.49 494.322 1051.24 494.17L1036.5 485.395Z" fill="#CCCCC9" fill-opacity="0.2"/>
<path d="M471.518 164.624L462.506 159.256L458.427 156.828V172.422L471.518 180.22V164.624Z" fill="#737373"/>
<path d="M485.429 155.361L472.339 163.158L459.248 155.361L472.339 147.563L485.429 155.361ZM486.25 156.827V172.421L473.159 180.219V164.623L482.171 159.255L486.25 156.827ZM458.427 156.827L462.506 159.255L471.518 164.623V180.219L458.427 172.421V156.827ZM471.928 182.418L472.339 182.532L472.749 182.418L487.481 173.643C487.734 173.493 487.891 173.213 487.891 172.91V155.361C487.891 155.057 487.734 154.778 487.481 154.627L472.749 145.851C472.496 145.702 472.181 145.702 471.928 145.851L457.196 154.627C456.944 154.778 456.786 155.057 456.786 155.361V172.91C456.786 173.213 456.944 173.493 457.196 173.643L471.928 182.418Z" fill="#CCCCC9" fill-opacity="0.2"/>
<path d="M473.159 180.22L486.25 172.422V156.828L482.171 159.256L473.159 164.624V180.22Z" fill="#737373"/>
<path d="M459.248 155.361L472.339 163.159L485.429 155.361L472.339 147.564L459.248 155.361Z" fill="#737373"/>
<path d="M689.448 114.418L680.438 109.05L676.359 106.622V122.216L689.448 130.012V114.418Z" fill="#737373"/>
<path d="M703.359 105.153L690.269 112.951L677.18 105.153L690.269 97.3551L703.359 105.153ZM704.18 106.621V122.215L691.089 130.011V114.417L700.1 109.049L704.18 106.621ZM676.359 106.621L680.438 109.049L689.448 114.417V130.011L676.359 122.215V106.621ZM689.858 132.212L690.269 132.326L690.679 132.212L705.411 123.437C705.664 123.285 705.821 123.006 705.821 122.704V105.153C705.821 104.851 705.664 104.572 705.411 104.42L690.679 95.6448C690.426 95.4941 690.111 95.4941 689.858 95.6448L675.128 104.42C674.874 104.572 674.718 104.851 674.718 105.153V122.704C674.718 123.006 674.874 123.285 675.128 123.437L689.858 132.212Z" fill="#CCCCC9" fill-opacity="0.2"/>
<path d="M691.089 130.012L704.18 122.216V106.622L700.1 109.05L691.089 114.418V130.012Z" fill="#737373"/>
<path d="M677.18 105.154L690.269 112.952L703.359 105.154L690.269 97.3566L677.18 105.154Z" fill="#737373"/>
<path d="M674.473 821.337L643.767 803.045V839.625L674.473 857.916V821.337Z" fill="#D437EA"/>
<path d="M676.115 857.916L706.821 839.625V803.045L676.115 821.337V857.916Z" fill="#D437EA"/>
<path d="M675.294 819.868L706 801.579L675.294 783.285L644.588 801.579L675.294 819.868Z" fill="#D437EA"/>
<path d="M706.821 839.625L676.115 857.916V821.337L706.821 803.045V839.625ZM643.767 803.045L674.473 821.337V857.916L643.767 839.625V803.045ZM706 801.579L675.294 819.869L644.588 801.579L675.294 783.286L706 801.579ZM708.052 800.846L675.704 781.576C675.452 781.423 675.136 781.423 674.884 781.576L642.536 800.846C642.282 800.996 642.126 801.276 642.126 801.579V840.116C642.126 840.417 642.282 840.696 642.536 840.847L674.884 860.116L675.294 860.229L675.704 860.116L708.052 840.847C708.304 840.696 708.462 840.417 708.462 840.116V801.579C708.462 801.276 708.304 800.996 708.052 800.846Z" fill="#CCCCC9" fill-opacity="0.2"/>
<path d="M378.198 769.884L347.49 751.593V788.173L378.198 806.465V769.884Z" fill="#A151F2"/>
<path d="M410.546 751.593L379.839 769.884V806.465L410.546 788.173V751.593Z" fill="#A151F2"/>
<path d="M379.019 768.418L409.725 750.127L379.019 731.835L348.311 750.127L379.019 768.418Z" fill="#A151F2"/>
<path d="M347.49 751.592L378.198 769.883V806.464L347.49 788.173V751.592ZM409.725 750.125L379.019 768.417L348.311 750.125L379.019 731.834L409.725 750.125ZM379.839 769.883L410.546 751.592V788.173L379.839 806.464V769.883ZM411.776 749.392L379.429 730.124C379.175 729.973 378.861 729.973 378.608 730.124L346.259 749.392C346.005 749.543 345.849 749.822 345.849 750.125V788.662C345.849 788.963 346.005 789.245 346.259 789.394L378.608 808.664L379.019 808.779L379.429 808.664L411.776 789.394C412.029 789.245 412.187 788.963 412.187 788.662V750.125C412.187 749.822 412.029 749.543 411.776 749.392Z" fill="#CCCCC9" fill-opacity="0.2"/>
</svg>
